<svg width="43" height="41" viewBox="0 0 43 41" fill="none" xmlns="http://www.w3.org/2000/svg">
<path d="M6.34201 14.6837C5.37601 9.48794 8.94601 4.98718 14.511 4.56207C19.411 4.19095 21.84 9.91305 22.33 11.0062C22.3354 11.0245 22.3469 11.0406 22.3627 11.0521C22.3785 11.0636 22.3977 11.0698 22.4175 11.0698C22.4373 11.0698 22.4565 11.0636 22.4723 11.0521C22.4881 11.0406 22.4996 11.0245 22.505 11.0062C24.78 4.99393 28.924 4.73751 30.38 4.59581C34.3 4.19095 39.557 7.11273 38.5 13.9212C36.988 23.3681 22.316 34.0363 22.316 34.0363C22.316 34.0363 8.25301 24.8391 6.34201 14.6837Z" stroke="black" stroke-width="3"/>
</svg>
